<?xml version="1.0" encoding="UTF-8"?>
<svg width="12px" height="16px" viewBox="0 0 12 16" version="1.1" xmlns="http://www.w3.org/2000/svg" xmlns:xlink="http://www.w3.org/1999/xlink">
    <title>documents</title>
    <g id="Workspace" stroke="none" stroke-width="1" fill="none" fill-rule="evenodd">
        <g id="documents" fill="#232323" fill-rule="nonzero">
            <path d="M2,14.5 C1.725,14.5 1.5,14.275 1.5,14 L1.5,2 C1.5,1.725 1.725,1.5 2,1.5 L7,1.5 L7,4 C7,4.553125 7.446875,5 8,5 L10.5,5 L10.5,14 C10.5,14.275 10.275,14.5 10,14.5 L2,14.5 Z M2,0 C0.896875,0 0,0.896875 0,2 L0,14 C0,15.103125 0.896875,16 2,16 L10,16 C11.103125,16 12,15.103125 12,14 L12,4.828125 C12,4.296875 11.790625,3.7875 11.415625,3.4125 L8.584375,0.584375 C8.209375,0.209375 7.703125,0 7.171875,0 L2,0 Z M3.75,8 C3.334375,8 3,8.334375 3,8.75 C3,9.165625 3.334375,9.5 3.75,9.5 L8.25,9.5 C8.665625,9.5 9,9.165625 9,8.75 C9,8.334375 8.665625,8 8.25,8 L3.75,8 Z M3.75,11 C3.334375,11 3,11.334375 3,11.75 C3,12.165625 3.334375,12.5 3.75,12.5 L8.25,12.5 C8.665625,12.5 9,12.165625 9,11.75 C9,11.334375 8.665625,11 8.25,11 L3.75,11 Z"></path>
        </g>
    </g>
</svg>