<?xml version="1.0" encoding="UTF-8"?>
<svg width="16px" height="16px" viewBox="0 0 16 16" version="1.1" xmlns="http://www.w3.org/2000/svg" xmlns:xlink="http://www.w3.org/1999/xlink">
    <title>Shape</title>
    <g id="Workspace" stroke="none" stroke-width="1" fill="none" fill-rule="evenodd">
        <path d="M13.7142857,1.71428571 C14.0285714,1.71428571 14.2857143,1.97142857 14.2857143,2.28571429 L14.2857143,13.7142857 C14.2857143,14.0285714 14.0285714,14.2857143 13.7142857,14.2857143 L2.28571429,14.2857143 C1.97142857,14.2857143 1.71428571,14.0285714 1.71428571,13.7142857 L1.71428571,2.28571429 C1.71428571,1.97142857 1.97142857,1.71428571 2.28571429,1.71428571 L13.7142857,1.71428571 Z M2.28571429,0 C1.025,0 0,1.025 0,2.28571429 L0,13.7142857 C0,14.975 1.025,16 2.28571429,16 L13.7142857,16 C14.975,16 16,14.975 16,13.7142857 L16,2.28571429 C16,1.025 14.975,0 13.7142857,0 L2.28571429,0 Z M9.10714286,5.10714286 C8.77142857,5.44285714 8.77142857,5.98571429 9.10714286,6.31785714 L10.7857143,7.99642857 L9.10714286,9.675 C8.77142857,10.0107143 8.77142857,10.5535714 9.10714286,10.8857143 C9.44285714,11.2178571 9.98571429,11.2214286 10.3178571,10.8857143 L12.6035714,8.6 C12.9392857,8.26428571 12.9392857,7.72142857 12.6035714,7.38928571 L10.3178571,5.10357143 C9.98214286,4.76785714 9.43928571,4.76785714 9.10714286,5.10357143 L9.10714286,5.10714286 Z M6.89285714,6.32142857 C7.22857143,5.98571429 7.22857143,5.44285714 6.89285714,5.11071429 C6.55714286,4.77857143 6.01428571,4.775 5.68214286,5.11071429 L3.39285714,7.39285714 C3.05714286,7.72857143 3.05714286,8.27142857 3.39285714,8.60357143 L5.67857143,10.8892857 C6.01428571,11.225 6.55714286,11.225 6.88928571,10.8892857 C7.22142857,10.5535714 7.225,10.0107143 6.88928571,9.67857143 L5.21071429,8 L6.88928571,6.32142857 L6.89285714,6.32142857 Z" id="Shape" fill="#000000" fill-rule="nonzero"></path>
    </g>
</svg>