<?xml version="1.0" encoding="UTF-8"?>
<svg width="21px" height="16px" viewBox="0 0 21 16" version="1.1" xmlns="http://www.w3.org/2000/svg" xmlns:xlink="http://www.w3.org/1999/xlink">
    <title>Shape</title>
    <g id="Workspace" stroke="none" stroke-width="1" fill="none" fill-rule="evenodd">
        <path d="M5.43035714,0 C3.69464286,0 2.2875,1.40714286 2.2875,3.14285714 L2.2875,4.76785714 C2.2875,5.14642857 2.1375,5.51071429 1.86964286,5.77857143 L0.251785714,7.39285714 C-0.0839285714,7.72857143 -0.0839285714,8.27142857 0.251785714,8.60357143 L1.86964286,10.2214286 C2.1375,10.4892857 2.2875,10.8535714 2.2875,11.2321429 L2.2875,12.8571429 C2.2875,14.5928571 3.69464286,16 5.43035714,16 L7.14464286,16 C7.61964286,16 8.00178571,15.6178571 8.00178571,15.1428571 C8.00178571,14.6678571 7.61964286,14.2857143 7.14464286,14.2857143 L5.43035714,14.2857143 C4.64107143,14.2857143 4.00178571,13.6464286 4.00178571,12.8571429 L4.00178571,11.2321429 C4.00178571,10.4 3.66964286,9.6 3.08035714,9.01071429 L2.06964286,8 L3.08035714,6.98928571 C3.66964286,6.4 4.00178571,5.6 4.00178571,4.76785714 L4.00178571,3.14285714 C4.00178571,2.35357143 4.64107143,1.71428571 5.43035714,1.71428571 L7.14464286,1.71428571 C7.61964286,1.71428571 8.00178571,1.33214286 8.00178571,0.857142857 C8.00178571,0.382142857 7.61964286,0 7.14464286,0 L5.43035714,0 Z M15.1446429,0 L13.4303571,0 C12.9553571,0 12.5732143,0.382142857 12.5732143,0.857142857 C12.5732143,1.33214286 12.9553571,1.71428571 13.4303571,1.71428571 L15.1446429,1.71428571 C15.9339286,1.71428571 16.5732143,2.35357143 16.5732143,3.14285714 L16.5732143,4.76785714 C16.5732143,5.6 16.9053571,6.4 17.4946429,6.98928571 L18.5053571,8 L17.4946429,9.01071429 C16.9053571,9.6 16.5732143,10.4 16.5732143,11.2321429 L16.5732143,12.8571429 C16.5732143,13.6464286 15.9339286,14.2857143 15.1446429,14.2857143 L13.4303571,14.2857143 C12.9553571,14.2857143 12.5732143,14.6678571 12.5732143,15.1428571 C12.5732143,15.6178571 12.9553571,16 13.4303571,16 L15.1446429,16 C16.8803571,16 18.2875,14.5928571 18.2875,12.8571429 L18.2875,11.2321429 C18.2875,10.8535714 18.4375,10.4892857 18.7053571,10.2214286 L20.3232143,8.60714286 C20.6589286,8.27142857 20.6589286,7.72857143 20.3232143,7.39642857 L18.7053571,5.77857143 C18.4375,5.51071429 18.2875,5.14642857 18.2875,4.76785714 L18.2875,3.14285714 C18.2875,1.40714286 16.8803571,0 15.1446429,0 Z" id="Shape" fill="#000000" fill-rule="nonzero"></path>
    </g>
</svg>